<?xml version="1.0" standalone="no"?><!DOCTYPE svg PUBLIC "-//W3C//DTD SVG 1.1//EN" "http://www.w3.org/Graphics/SVG/1.1/DTD/svg11.dtd"><svg t="1700310058319" class="icon" viewBox="0 0 1024 1024" version="1.1" xmlns="http://www.w3.org/2000/svg" p-id="16816" xmlns:xlink="http://www.w3.org/1999/xlink" width="200" height="200"><path d="M801.951955 810.865873c79.073988-77.103988 126.06198-184.205971 126.06198-298.213953 0-35.283994-4.431999-70.349989-13.171998-104.221984a19.999997 19.999997 0 0 0-38.495994-0.832c-15.127998 49.653992-40.661994 95.877985-74.281988 135.439979 8.887999-43.125993 5.657999-87.427986-9.509999-128.91198-3.791999-10.375998-15.273998-15.715998-25.649996-11.915998-10.375998 3.791999-15.707998 15.277998-11.915998 25.649996 13.861998 37.911994 15.717998 78.667988 5.373999 117.861982-6.105999 23.133996-16.209997 44.699993-30.033995 64.09199a19.999997 19.999997 0 0 0 28.007996 27.811995c54.291992-39.269994 98.567985-91.309986 128.819979-150.525976 0.57 8.491999 0.858 17.015997 0.858 25.551996 0 145.041977-84.129987 277.729957-214.869966 339.833947a141.037978 141.037978 0 0 0-14.891998-4.599999c18.219997-28.233996 28.027996-61.01799 28.027996-95.267986 0-32.317995-8.625999-51.469992-16.963998-69.991989-9.579999-21.273997-19.485997-43.271993-19.485997-93.699985 0-4.843999-1.772-9.539999-4.961999-13.185998a19.989997 19.989997 0 0 0-13.979998-6.799999 19.907997 19.907997 0 0 0-14.625997 5.267999 185.255971 185.255971 0 0 0-44.541993 62.70199 99.407984 99.407984 0 0 0-8.681999-4.797999c-19.741997-10.185998-31.995995-30.277995-31.995995-52.481992a58.793991 58.793991 0 0 1 9.461999-32.077995 19.999997 19.999997 0 0 0-25.109997-29.065995c-52.849992 24.215996-91.535986 70.377989-107.201983 124.685981a73.803988 73.803988 0 0 1-1.76-9.119999 19.999997 19.999997 0 0 0-37.515994-6.805999c-21.571997 40.775994-31.191995 80.021987-31.191995 127.25398 0 36.839994 11.313998 71.743989 32.257995 100.999984-1.968 0.86-3.913999 1.762-5.835999 2.71-136.593979-58.767991-225.865965-191.29597-228.113964-339.717947-0.158-10.431998 0.11-20.839997 0.8-31.197995a420.787934 420.787934 0 0 0 44.353993 69.247989 19.987997 19.987997 0 0 0 22.889996 6.295999 19.999997 19.999997 0 0 0 12.779998-20.007997c-2.368-35.261994 8.495999-69.967989 30.549995-97.683985 27.405996-34.233995 41.079994-77.265988 39.599994-120.307981 14.723998 16.129997 26.201996 35.031995 33.943995 56.111991 4.609999 12.545998 7.741999 24.677996 9.297998 35.969995 2.192 16.417997 5.755999 31.203995 10.895999 45.199993 8.585999 23.375996 21.031997 44.815993 36.991994 63.71999a19.999997 19.999997 0 0 0 33.883995-5.555999c16.835997-42.627993 25.371996-87.671986 25.371996-133.877979 0-25.565996-3.018-51.533992-9.205999-79.295988-4.635999-21.233997-6.987999-44.737993-6.987999-69.855989 0-57.341991 14.713998-112.059982 42.931993-160.775975 13.165998 72.059989 51.353992 137.419979 109.169983 184.691971a19.999997 19.999997 0 0 0 31.099996-7.739999 234.481963 234.481963 0 0 1 40.583993-64.52599c-0.544 29.235995 4.333999 58.419991 14.577998 86.349987 3.803999 10.369998 15.295998 15.687998 25.663996 11.889998 10.371998-3.803999 15.693998-15.293998 11.889998-25.663996-14.055998-38.321994-15.969998-79.475988-5.533999-119.013981a20.001997 20.001997 0 0 0-31.067995-21.305997c-33.745995 24.431996-61.37999 55.843991-81.011988 91.861986C528.075997 162.235975 499.030002 93.207985 499.030002 19.999997a20.003997 20.003997 0 0 0-35.475994-12.669998c-53.875992 65.80999-82.355987 145.315977-82.355988 229.923964 0 27.979996 2.66 54.355992 7.925999 78.471988 5.561999 24.957996 8.265999 48.075992 8.265999 70.679989 0 27.675996-3.433999 54.873991-10.239998 81.257987a173.931973 173.931973 0 0 1-8.459999-19.333997c-4.117999-11.213998-6.995999-23.219996-8.805999-36.787994-1.96-14.213998-5.791999-29.147995-11.387998-44.381993-16.973997-46.217993-48.479992-83.935987-91.107986-109.071983a19.999997 19.999997 0 0 0-28.931995 24.125996c17.099997 46.553993 8.561999 99.409984-22.315997 137.981978a181.917972 181.917972 0 0 0-33.703995 67.21799 377.445941 377.445941 0 0 1-34.783994-79.817988c-2.612-8.569999-10.599998-14.293998-19.563997-14.165997a19.999997 19.999997 0 0 0-18.931997 14.999997c-9.275999 35.949994-13.691998 73.183989-13.123998 110.667983 1.258 83.019987 27.099996 162.907975 74.729988 231.031964a420.475934 420.475934 0 0 0 68.93599 76.607988c-54.115992 8.435999-99.007985 47.189993-113.001983 100.009984-6.095999 23.007996-1.206 47.103993 13.417998 66.10599C155.348056 1012.647842 178.646052 1023.99984 204.036048 1023.99984h115.785982c9.147999 0 18.013997-1.496 26.339996-4.305999 8.375999 2.856 17.201997 4.305999 26.351996 4.305999h109.233983c15.711998 0 30.855995-4.493999 43.515993-12.623998 12.625998 8.099999 27.761996 12.623998 43.503993 12.623998H677.999974a81.739987 81.739987 0 0 0 25.345996-4.047999A82.009987 82.009987 0 0 0 728.955966 1023.99984h121.151981c25.593996 0 49.315992-11.625998 65.08599-31.899995 15.915998-20.461997 21.379997-46.631993 14.989998-71.801989-15.397998-60.671991-67.15799-104.195984-128.23198-109.431983z m-424.229934-56.367991c0-23.723996 2.67-44.605993 8.541999-64.82399a115.159982 115.159982 0 0 0 21.603996 23.247997 19.995997 19.995997 0 1 0 32.645995-15.493998c0-44.365993 18.919997-86.005987 50.555992-115.251982 0.916 36.329994 21.383997 68.967989 53.881992 85.617987 0.122 0.06 0.24 0.122 0.362 0.18a58.679991 58.679991 0 0 1 20.201997 16.141997 19.999997 19.999997 0 1 0 35.027994-7.789999 145.999977 145.999977 0 0 1 13.437998-34.953994c4.605999 26.021996 12.253998 43.005993 18.861997 57.679991 7.507999 16.669997 13.437998 29.837995 13.437998 53.565991 0 34.051995-12.517998 66.27999-35.383994 91.535986-33.431995 2.884-63.76399 17.219997-85.635987 39.199994-24.885996-24.965996-60.473991-39.753994-98.127985-39.753994-4.959999 0-9.899998 0.284-14.801997 0.792-22.365997-24.681996-34.609995-56.243991-34.609995-89.893986zM204.036048 983.999846c-12.875998 0-24.619996-5.663999-32.219995-15.541997-6.991999-9.083999-9.343999-20.553997-6.451999-31.463995 11.231998-42.387993 50.939992-71.993989 96.565985-71.993989 45.623993 0 85.333987 29.605995 96.565985 71.993989 2.892 10.909998 0.54 22.379997-6.453999 31.465995-7.599999 9.875998-19.343997 15.539998-32.219995 15.539997z m185.579971 0c9.937998-17.339997 12.729998-37.683994 7.543999-57.251991a133.199979 133.199979 0 0 0-13.937998-33.359995c13.427998-6.371999 28.513996-9.789998 43.907993-9.789998 29.571995 0 57.143991 12.461998 74.525989 33.113995a115.553982 115.553982 0 0 0-6.855999 18.147997c-4.349999 15.365998-3.028 31.399995 3.485999 45.723993a41.417994 41.417994 0 0 1-16.539997 3.413999h-92.129986z m179.151972 0c-12.439998 0-23.917996-5.359999-30.707995-14.335998-5.413999-7.159999-7.109999-15.649998-4.771999-23.907996a76.863988 76.863988 0 0 1 8.377998-19.111997c0.168-0.242 0.31-0.496 0.466-0.742 16.041997-25.653996 46.805993-42.301993 81.249988-42.301993 42.685993 0 79.733988 25.559996 90.093986 62.15599 2.338 8.257999 0.642 16.747997-4.772 23.907996C701.91797 978.639847 690.439972 983.999846 677.999974 983.999846z m314.855951-16.461997c-8.135999 10.459998-20.351997 16.459997-33.513995 16.459997h-103.293984c7.935999-15.159998 9.851998-32.539995 5.152-49.137992-6.111999-21.589997-18.313997-40.555994-34.637995-55.529991 19.367997-18.391997 45.279993-28.997995 72.203989-28.997996 48.059992 0 89.955986 32.815995 101.881984 79.805988 3.329999 13.121998 0.49 26.751996-7.791999 37.399994zM895.99994 93.359985c11.043998 0 19.999997-8.955999 19.999997-19.999996V46.167993c0-11.043998-8.955999-19.999997-19.999997-19.999997s-19.999997 8.955999-19.999997 19.999997V73.359989c0 11.045998 8.955999 19.999997 19.999997 19.999996zM895.99994 229.831964c11.043998 0 19.999997-8.955999 19.999997-19.999997V182.637971c0-11.043998-8.955999-19.999997-19.999997-19.999996s-19.999997 8.955999-19.999997 19.999996v27.193996c0 11.043998 8.955999 19.999997 19.999997 19.999997zM977.831927 107.999983H950.639931c-11.043998 0-19.999997 8.955999-19.999996 19.999997s8.955999 19.999997 19.999996 19.999997h27.193996c11.043998 0 19.999997-8.955999 19.999997-19.999997s-8.955999-19.999997-20.001997-19.999997zM814.167953 147.999977h27.193996c11.043998 0 19.999997-8.955999 19.999996-19.999997s-8.955999-19.999997-19.999996-19.999997h-27.193996c-11.043998 0-19.999997 8.955999-19.999997 19.999997s8.955999 19.999997 19.999997 19.999997zM127.99806 93.359985c11.045998 0 19.999997-8.955999 19.999997-19.999996V46.167993c0-11.043998-8.953999-19.999997-19.999997-19.999997s-19.999997 8.955999-19.999997 19.999997V73.359989c0 11.045998 8.953999 19.999997 19.999997 19.999996zM127.99806 229.831964c11.045998 0 19.999997-8.955999 19.999997-19.999997V182.637971c0-11.043998-8.953999-19.999997-19.999997-19.999996s-19.999997 8.955999-19.999997 19.999996v27.193996c0 11.043998 8.953999 19.999997 19.999997 19.999997zM182.636051 147.999977h27.193996c11.045998 0 19.999997-8.955999 19.999997-19.999997s-8.953999-19.999997-19.999997-19.999997H182.636051c-11.045998 0-19.999997 8.955999-19.999996 19.999997s8.953999 19.999997 19.999996 19.999997zM73.362069 107.999983H46.166073c-11.045998 0-19.999997 8.955999-19.999997 19.999997s8.953999 19.999997 19.999997 19.999997H73.360069c11.045998 0 19.999997-8.955999 19.999996-19.999997s-8.953999-19.999997-19.997996-19.999997z" p-id="16817" fill="#ffffff"></path><path d="M726.099967 364.637943c5.279999 0 10.419998-2.12 14.139997-5.839999a20.093997 20.093997 0 0 0 5.859999-14.137998c0-5.281999-2.12-10.419998-5.859999-14.159998a20.119997 20.119997 0 0 0-14.139997-5.861999c-5.259999 0-10.419998 2.14-14.139998 5.861999a20.163997 20.163997 0 0 0-5.859999 14.159998c0 5.259999 2.14 10.399998 5.859999 14.137998a20.123997 20.123997 0 0 0 14.139998 5.839999z" p-id="16818" fill="#ffffff"></path></svg>