<?xml version="1.0" standalone="no"?><!DOCTYPE svg PUBLIC "-//W3C//DTD SVG 1.1//EN" "http://www.w3.org/Graphics/SVG/1.1/DTD/svg11.dtd"><svg t="1700310086809" class="icon" viewBox="0 0 1024 1024" version="1.1" xmlns="http://www.w3.org/2000/svg" p-id="18031" xmlns:xlink="http://www.w3.org/1999/xlink" width="200" height="200"><path d="M510.208 0.256C227.5072 0.256 0.256 230.0672 0.256 510.208c0 280.2176 229.7856 512.4608 509.952 512.4608 280.2176 0 512.4608-229.76 512.4608-512.4352C1022.6688 227.4816 792.9088 0.256 510.2336 0.256z m0 959.3088c-247.3984 0-449.3824-201.984-449.3824-449.3312 0-247.424 201.984-449.408 449.408-449.408 247.3472 0 449.28 201.984 449.28 449.408 0 247.3472-201.9328 449.28-449.28 449.28v0.0512z" fill="#ffffff" p-id="18032"></path><path d="M732.3648 323.4048l-111.104 355.9168-78.2592-477.1328-63.104-2.56-68.1728 280.32h-52.992l-27.776 20.1728-17.664 52.992-50.4832-176.64-58.0608-2.56-42.88 105.984H131.4816v63.104h50.4832l30.2848-20.1728 15.1552-40.3712 50.5088 186.8032 60.544 2.56 42.9312-128.8192h52.992l30.336-25.216 40.32-153.984 75.776 454.4 60.6208 5.0432 121.1392-378.6752 20.224 75.6992 30.2848 22.7328h75.6992v-63.104h-50.432l-45.44-153.984z" fill="#ffffff" p-id="18033"></path></svg>